<?xml version="1.0" encoding="UTF-8"?><!DOCTYPE svg PUBLIC "-//W3C//DTD SVG 1.1//EN" "http://www.w3.org/Graphics/SVG/1.1/DTD/svg11.dtd"><svg xmlns="http://www.w3.org/2000/svg" xmlns:xlink="http://www.w3.org/1999/xlink"><symbol id="arrow-right"><path d="M14 1l6 6m0 0l-6 6m6-6H0" stroke="currentColor" fill="none" stroke-width="1.2"/></symbol><symbol id="back"><path display="var(--is-visible--only-desktop)" d="M8 5l-6 6 6 6M2 11h20" fill="none" stroke="currentColor" stroke-width="2"/><path display="var(--is-visible--non-desktop)" d="M3 11h16M8 6l-5 5 5 5" fill="none" stroke="currentColor" stroke-width="2"/></symbol><symbol id="btn-angle-down"><path d="M8.5 13L1 5.5M10.5 11L16 5.5" stroke="currentColor" fill="none" stroke-width="1.2" stroke-miterlimit="10"/></symbol><symbol id="btn-angle-left"><path d="M12 3L6 9l6 6" stroke="currentColor" fill="none" stroke-width="1.2"/></symbol><symbol id="btn-angle-right"><path d="M6 15l6-6-6-6" stroke="currentColor" fill="none" stroke-width="1.2"/></symbol><symbol id="btn-angle-up"><path d="M8.5 5.194l-7.083 7.083M10.389 7.083l5.194 5.194" stroke="currentColor" fill="none" stroke-width="1.2" stroke-miterlimit="10"/></symbol><symbol id="btn-arrow-down"><path d="M10 0v18.518l9.375-9.259M7.5 16.05L.625 9.26" display="var(--is-visible--only-desktop)" fill="none" stroke="currentColor" stroke-width="1.2" stroke-miterlimit="10"/><path display="var(--is-visible--non-desktop)" fill="none" d="M10.125 1.8v15l7.594-7.5M8.1 14.8L2.531 9.3" stroke="currentColor" stroke-width="1.2" stroke-miterlimit="10"/></symbol><symbol id="btn-arrow-left"><path fill="none" display="var(--is-visible--only-desktop)" d="M20 9.877H1.481l9.26 9.259M3.95 7.407l6.79-6.79" stroke="currentColor" stroke-width="1.2" stroke-miterlimit="10"/><path fill="none" display="var(--is-visible--non-desktop)" d="M18.2 10h-15l7.5 7.5M5.2 8l5.5-5.5" stroke="currentColor" stroke-width="1.2" stroke-miterlimit="10"/></symbol><symbol id="btn-arrow-right"><path display="var(--is-visible--only-desktop)" d="M0 9.877h18.518L9.26 19.136M16.05 7.407L9.26.617" fill="none" stroke="currentColor" stroke-width="1.2" stroke-miterlimit="10"/><path display="var(--is-visible--non-desktop)" d="M1.8 10h15l-7.5 7.5M14.8 8L9.3 2.5" fill="none" stroke="currentColor" stroke-width="1.2" stroke-miterlimit="10"/></symbol><symbol id="btn-arrow-up"><path d="M10 18.2v-15l-7.5 7.5M12 5.2l5.5 5.5" fill="none" stroke="currentColor" stroke-width="1.2" stroke-miterlimit="10"/></symbol><symbol id="btn-panorama"><path fill="none" d="M22 10h18.519L31.259.74m6.79 11.73l-6.79 6.79M23 10H1.481l9.26 9.26M3.95 7.53L10.74.74" stroke="currentColor" stroke-width="1.2" stroke-miterlimit="10"/></symbol><symbol id="close-bold"><path d="M17 1L1 17M1 1l16 16" stroke="currentColor" stroke-width="2"/></symbol><symbol id="close-sm"><path d="M.901.9l10.2 10.2M4.641 7.36L.901 11.1M11.101.9L6.001 6" stroke="currentColor" stroke-width="1.2" stroke-miterlimit="10"/></symbol><symbol id="close"><path display="var(--is-visible--only-desktop)" fill="none" d="M1 1l17 17M7.233 11.767L1 18M18 1L9.5 9.5" stroke="currentColor" stroke-width="1.2" stroke-miterlimit="10"/><path display="var(--is-visible--non-desktop)" fill="none" d="M2.5 2.5l15 15M8 12l-5.5 5.5M17.5 2.5L10 10" stroke="currentColor" stroke-width="1.2" stroke-miterlimit="10"/></symbol><symbol id="download-pdf"><path d="M8 0v11.333" stroke="currentColor" fill="none" stroke-width="1.2" stroke-miterlimit="10"/><path d="M12 6.857l-4 4-4-4M14.857 14.857H1.143" stroke="currentColor" fill="none" stroke-width="1.2" stroke-miterlimit="10" stroke-linecap="square"/></symbol><symbol id="download-xs"><path d="M1 16.5h16" fill="none" stroke="currentColor" stroke-width="1.2" stroke-miterlimit="10"/><path d="M9 16L1.5 8.5" sfill="none" stroke="currentColor" stroke-width="1.2" stroke-miterlimit="10"/><path d="M9 1v15M11 14l5.5-5.5" fill="none" stroke="currentColor" stroke-width="1.2" stroke-miterlimit="10"/></symbol><symbol id="download"><path display="var(--is-visible--only-desktop)" d="M0 19.375h20M10 18.75L.625 9.375M10 0v18.75M12.5 16.25l6.875-6.875" fill="none" stroke="currentColor" stroke-width="1.2" stroke-miterlimit="10"/><path display="var(--is-visible--non-desktop)" d="M2 19.5h16M10 19l-7.5-7.5M10 4v15M12 17l5.5-5.5" fill="none" stroke="currentColor" stroke-width="1.2" stroke-miterlimit="10"/></symbol><symbol id="dropdown"><path d="M1 1l5 5 5-5" fill="none" stroke="currentColor" stroke-width="2" display="var(--is-visible--only-desktop)"/><path d="M2 3l4 4 4-4" fill="none" stroke="currentColor" stroke-width="2" display="var(--is-visible--only-non-desktop)"/></symbol><symbol id="eye"><path display="var(--is-visible--only-desktop)" fill="none" d="M17.375 3.875c1.5 1.625 2.125 3.25 2.125 3.25s-2.25 6.125-9.25 6.125S1 7.125 1 7.125 3.375 1 10.25 1" stroke="currentColor" stroke-width="1.2" stroke-miterlimit="10"/><path display="var(--is-visible--only-desktop)" fill="none" d="M5.625 5.625c0 2.5 2.125 4.625 4.625 4.625s4.625-2.125 4.625-4.625S12.75 1 10.25 1" stroke="currentColor" stroke-width="1.2" stroke-miterlimit="10"/><path display="var(--is-visible--non-desktop)" fill="none" d="M16.1 4.3c1.2 1.3 1.7 2.6 1.7 2.6s-1.8 4.9-7.4 4.9C4.8 11.8 3 6.9 3 6.9S4.9 2 10.4 2" stroke="currentColor" stroke-width="1.2" stroke-miterlimit="10"/><path display="var(--is-visible--non-desktop)" fill="none" d="M6.7 5.7c0 2 1.7 3.7 3.7 3.7s3.7-1.7 3.7-3.7S12.4 2 10.4 2" stroke="currentColor" stroke-width="1.2" stroke-miterlimit="10"/></symbol><symbol id="favourite"><path display="var(--is-visible--only-desktop)" d="M1 0v18.375L9.125 10l8.125 8.375V.625H4.125V11.25" fill="none" stroke="currentColor" stroke-width="1.2" stroke-miterlimit="10"/><path display="var(--is-visible--non-desktop)" d="M2 2v14.7L8.5 10l6.5 6.7V2.5H4.5V11" fill="none" stroke="currentColor" stroke-width="1.2" stroke-miterlimit="10"/></symbol><symbol id="feature-Parking-3"><path d="M11.156 14.306a6.778 6.778 0 006.825-6.825A6.778 6.778 0 0011.156.656H4.331v19.688h3.282V5.38" stroke="currentColor" fill="none" stroke-width="1.2" stroke-miterlimit="10"/></symbol><symbol id="feature-gift" viewBox="0 0 21 21"><path d="M8 19.5v-8H2.5v8H8zM8 10.5v-4H1.5v4H8zM18.5 19.5v-8H13v8h5.5zM19.5 10.5v-4H13v4h6.5zM12 19.5v-13H9v13h3z" fill="currentColor"/><path fill-rule="evenodd" clip-rule="evenodd" d="M11.64 4.605h2.47a.947.947 0 000-1.894c-.759 0-1.378.47-1.921 1.133a8.9 8.9 0 00-.548.76zm-.38-1.52c.617-.755 1.544-1.585 2.85-1.585 1.185 0 2.146.972 2.146 2.158a2.147 2.147 0 01-2.147 2.147H9.051l1.024-1.025c.022-.021.068-.078.147-.194.064-.094.134-.203.217-.333l.047-.073c.202-.315.46-.712.774-1.095z" fill="currentColor"/><path fill-rule="evenodd" clip-rule="evenodd" d="M9.36 4.605H6.89a.947.947 0 010-1.894c.758 0 1.378.47 1.921 1.133.204.25.385.511.548.76zm.38-1.52C9.122 2.33 8.195 1.5 6.89 1.5a2.156 2.156 0 00-2.146 2.158c0 1.186.96 2.147 2.147 2.147h5.057L10.924 4.78a1.578 1.578 0 01-.147-.194 14.65 14.65 0 01-.216-.333c-.016-.023-.031-.048-.047-.073-.202-.315-.46-.712-.774-1.095z" fill="currentColor"/></symbol><symbol id="feature-parking-nav"><path d="M11.485 14.375h1.443c.765 0 1.498-.296 2.04-.824.54-.527.844-1.243.844-1.989 0-.745-.304-1.46-.845-1.988a2.923 2.923 0 00-2.04-.824H9.563v7.5h1.923v-1.875zm0-3.75h1.443c.255 0 .5.099.68.275.18.175.281.414.281.662a.926.926 0 01-.281.663.974.974 0 01-.68.275h-1.443v-1.875z" fill="currentColor" display="var(--is-visible--mobile)"/><rect x="6.25" y="6.25" width="12.5" height="12.5" rx="2" fill="none" stroke="currentColor" display="var(--is-visible--mobile)"/><path d="M10.377 15h2.308a4.676 4.676 0 003.263-1.318A4.443 4.443 0 0017.3 10.5a4.443 4.443 0 00-1.352-3.182A4.676 4.676 0 0012.685 6H7.3v12h3.077v-3zm0-6h2.308c.408 0 .799.158 1.088.44.288.28.45.662.45 1.06s-.162.78-.45 1.06c-.289.282-.68.44-1.088.44h-2.308V9z" fill="currentColor" display="var(--is-visible--non-mobile)"/><rect x="2" y="2" width="20" height="20" rx="2" fill="none" stroke="currentColor" stroke-width="1.2" display="var(--is-visible--non-mobile)"/></symbol><symbol id="feature-penthouse-2"><path d="M8.438 9.688V6.563h8.125v3.125m-8.125 0v8.75h1.874m-1.874-8.75h8.124m0 0v8.75h-4.375m-1.874 0h1.875m-1.876 0v-3.75h1.876v3.75" fill="none" stroke="currentColor" stroke-miterlimit="10" stroke-linecap="square" display="var(--is-visible--only-non-desktop)"/><path fill="currentColor" display="var(--is-visible--only-non-desktop)" d="M8.75 6.875h7.5v2.5h-7.5z"/><path d="M5.5 7.5v-5h13v5m-13 0v14h3m-3-14h13m0 0v14h-7m-3 0h3m-3 0v-6h3v6" fill="none" stroke="currentColor" stroke-width="1.2" stroke-miterlimit="10" stroke-linecap="square" display="var(--is-visible--only-desktop)"/><path fill="currentColor" display="var(--is-visible--only-desktop)" d="M6 3h12v4H6z"/></symbol><symbol id="feature-penthouse-3"><path display="var(--is-visible--only-desktop)" fill="none" d="M7.25 15.125V5.75L1 10.375v9.375h18.75V1h-9.375v18.75" stroke="currentColor" stroke-width="1.2" stroke-miterlimit="10" stroke-linecap="square"/><path display="var(--is-visible--non-desktop)" fill="none" d="M7.5 13.8V6.3l-5 3.7v7.5h15v-15H10v15" stroke="currentColor" stroke-width="1.2" stroke-miterlimit="10" stroke-linecap="square"/></symbol><symbol id="feature-penthouse-4"><path d="M5.5 7.5v-5h13v5m-13 0v14h3m-3-14h13m0 0v14h-7m-3 0h3m-3 0v-6h3v6" fill="none" stroke="currentColor" stroke-width="1.2" stroke-miterlimit="10" stroke-linecap="square" display="var(--is-visible--only-desktop)"/><path fill="currentColor" display="var(--is-visible--only-desktop)" d="M6 3h12v4H6z"/><path d="M7.125 8.626v-3.75h9.75v3.75m-9.75 0v10.5h2.25m-2.25-10.5h9.75m0 0v10.5h-5.25m-2.25 0h2.249m-2.25 0v-4.5h2.25v4.5" fill="none" stroke="currentColor" stroke-miterlimit="10" stroke-linecap="square" display="var(--is-visible--only-tablet)"/><path fill="currentColor" display="var(--is-visible--only-tablet)" d="M7.499 5.25h9v3h-9z"/><path d="M8.438 9.688V6.562h8.125v3.125m-8.125 0v8.75h1.874m-1.874-8.75h8.124m0 0v8.75h-4.375m-1.874 0h1.875m-1.876 0v-3.75h1.876v3.75" fill="none" stroke="currentColor" stroke-miterlimit="10" stroke-linecap="square" display="var(--is-visible--only-mobile)"/><path fill="currentColor" display="var(--is-visible--only-mobile)" d="M8.75 6.875h7.5v2.5h-7.5z"/></symbol><symbol id="feature-penthouse-nav"><path d="M8.438 9.688V6.563h8.125v3.125m-8.125 0v8.75h1.874m-1.874-8.75h8.124m0 0v8.75h-4.375m-1.874 0h1.875m-1.876 0v-3.75h1.876v3.75" fill="none" stroke="currentColor" stroke-miterlimit="10" stroke-linecap="square" display="var(--is-visible--mobile)"/><path fill="currentColor" stroke="currentColor" display="var(--is-visible--mobile)" d="M9.25 7.375h6.5v1.5h-6.5z"/><path d="M5.5 8.5v-5h13v5m-13 0v14h3m-3-14h13m0 0v14h-7m-3 0h3m-3 0v-6h3v6" fill="none" stroke="currentColor" stroke-width="1.2" stroke-miterlimit="10" stroke-linecap="square" display="var(--is-visible--non-mobile)"/><path fill="currentColor" stroke="currentColor" display="var(--is-visible--non-mobile)" d="M6.5 4.5h11v3h-11z"/></symbol><symbol id="feature-penthouse"><path d="M17.5 1.5v5m0-5h-4m4 0l-5 5m-3-5h-5v5m5-5l-5 5m5-5h4m-9 5v14h5m-5-14h4m9 0v14h-5m5-14h-5m-3 14h3m-3 0v-6h3v6m0-14h-4m0 0l5-5" fill="none" stroke="currentColor" stroke-width="1.2" stroke-miterlimit="10" stroke-linecap="square" display="var(--is-visible--large-desktop)"/><path d="M16.5 3.5v4m0-4H13m3.5 0l-4 4m-3-4h-4v4m4-4l-4 4m4-4H13m-7.5 4v11h4m-4-11H9m7.5 0v11h-4m4-11h-4m-3 11v-5h3v5m-3 0h3m0-11H9m0 0l4-4" fill="none" stroke="currentColor" stroke-width="1.2" stroke-miterlimit="10" stroke-linecap="square" display="var(--is-visible--small-desktop)"/><path d="M14.5 4.5v3m0-3H12m2.5 0l-3 3m-2-3H6.437v3m3.063-3l-3.063 3m3.063-3H12m-5.563 3l.063 9h3m-3.063-9H9m5.5 0v9h-3m3-9h-3m-2 9v-4h2v4m-2 0h2m0-9H9m0 0l3-3" fill="none" stroke="currentColor" stroke-width="1.2" stroke-miterlimit="10" stroke-linecap="square" display="var(--is-visible--non-any-desktop)"/></symbol><symbol id="feature-terrace-2"><path d="M12.5 6.25v12.5" fill="none" stroke="currentColor" stroke-miterlimit="10" display="var(--is-visible--only-non-desktop)"/><path d="M17.916 12.083H7.083L12.5 7.5l5.416 4.583z" fill="currentColor" stroke="currentColor" stroke-width="1.2" display="var(--is-visible--only-non-desktop)"/><path d="M12 2v20" fill="none" stroke="currentColor" stroke-width="1.2" stroke-miterlimit="10" display="var(--is-visible--only-desktop)"/><path d="M20.666 11.333H3.333L12 4l8.666 7.333z" fill="currentColor" stroke="currentColor" stroke-width="1.2" display="var(--is-visible--only-desktop)"/></symbol><symbol id="feature-terrace-3"><path d="M10.5 20.344v-8.925M.656 11.419h19.688M.656 11.419V8.138L10.5.918l8.531 7.22H5.25" stroke="currentColor" fill="none" display="var(--is-visible--only-desktop)" stroke-width="1.2" stroke-miterlimit="10" stroke-linecap="square"/><path d="M10 18.5v-6.8M2.5 11.7h15M2.5 11.7V9.2L10 3.7l6.5 5.5H6" stroke="currentColor" fill="none" display="var(--is-visible--non-desktop)" stroke-width="1.2" stroke-miterlimit="10" stroke-linecap="square"/></symbol><symbol id="feature-terrace-4"><path d="M12 2v20" fill="none" stroke="currentColor" stroke-width="1.2" stroke-miterlimit="10" display="var(--is-visible--only-desktop)"/><path d="M20.666 11.333H3.333L12 4l8.666 7.333z" fill="currentColor" stroke="currentColor" stroke-width="1.2" display="var(--is-visible--only-desktop)"/><path d="M12 4.5v15" fill="none" stroke="currentColor" stroke-miterlimit="10" display="var(--is-visible--only-tablet)"/><path d="M18.5 11.499h-13l6.5-5.5 6.5 5.5z" fill="currentColor" stroke="currentColor" stroke-width="1.2" display="var(--is-visible--only-tablet)"/><path d="M12.5 6.25v12.5" fill="none" stroke="currentColor" stroke-miterlimit="10" display="var(--is-visible--only-mobile)"/><path d="M17.916 12.083H7.083L12.5 7.5l5.416 4.583z" fill="currentColor" stroke="currentColor" stroke-width="1.2" display="var(--is-visible--only-mobile)"/></symbol><symbol id="feature-terrace-nav"><path d="M12.5 6.25v12.5" fill="none" stroke="currentColor" stroke-miterlimit="10" display="var(--is-visible--mobile)"/><path d="M17.916 12.083H7.083L12.5 7.5l5.416 4.583z" fill="currentColor" stroke="currentColor" stroke-width="1.2" display="var(--is-visible--mobile)"/><path d="M12 3v20" fill="none" stroke="currentColor" stroke-width="1.2" stroke-miterlimit="10" display="var(--is-visible--non-mobile)"/><path d="M20.666 12.333H3.333L12 5l8.666 7.333z" fill="currentColor" stroke="currentColor" stroke-width="1.2" display="var(--is-visible--non-mobile)"/></symbol><symbol id="feature-terrace"><path d="M11 1v20" fill="none" stroke="currentColor" stroke-width="1.2" stroke-miterlimit="10" display="var(--is-visible--large-desktop)"/><path d="M19.5 10.5h-17L11 3l8.5 7.5z" fill="none" stroke="currentColor" stroke-width="1.2" display="var(--is-visible--large-desktop)"/><path d="M11 3.5v15" fill="none" stroke="currentColor" stroke-width="1.2" stroke-miterlimit="10" display="var(--is-visible--small-desktop)"/><path d="M17.5 10.625h-13L11 5l6.5 5.625z" fill="none" stroke="currentColor" stroke-width="1.2" display="var(--is-visible--small-desktop)"/><path d="M10.5 4.166v12.5" fill="none" stroke="currentColor" stroke-width="1.2" stroke-miterlimit="10" display="var(--is-visible--non-any-desktop)"/><path d="M16 10.666H5l5.5-5 5.5 5z" fill="none" stroke="currentColor" stroke-width="1.2" display="var(--is-visible--non-any-desktop)"/></symbol><symbol id="feature-twofloors-2"><path d="M7.5 6.563h10" fill="currentColor" stroke="currentColor" display="var(--is-visible--only-non-desktop)"/><path d="M12.188 15.938h2.5v2.5H7.811v-7.5h1.875v2.5h2.5v2.5z" fill="currentColor" display="var(--is-visible--only-non-desktop)"/><path d="M14.688 18.438v-2.5h-2.5v-2.5h-2.5v-2.5H7.812v7.5h6.875zm0 0H17.5" fill="currentColor" stroke="currentColor" stroke-width="1.2" display="var(--is-visible--only-non-desktop)"/><path d="M4 2.5h16" fill="currentColor" stroke="currentColor" stroke-width="1.2" display="var(--is-visible--only-desktop)"/><path d="M11.5 17.5h4v4h-11v-12h3v4h4v4z" fill="currentColor" display="var(--is-visible--only-desktop)"/><path d="M15.5 21.5v-4h-4v-4h-4v-4h-3v12h11zm0 0H20" fill="currentColor" stroke="currentColor" stroke-width="1.2" display="var(--is-visible--only-desktop)"/></symbol><symbol id="feature-twofloors-3"><path display="var(--is-visible--only-desktop)" d="M21 20.344H.656V14.83H7.22V9.45h6.562V3.938h6.563V.655H0" stroke="currentColor" fill="none" stroke-width="1.2" stroke-miterlimit="10"/><path display="var(--is-visible--non-desktop)" d="M18.9 18.375H2.625v-4.41h5.25V9.66h5.25V5.25h5.25V2.625H2.1" stroke="currentColor" fill="none" stroke-width="1.2" stroke-miterlimit="10"/></symbol><symbol id="feature-twofloors-4"><path d="M6 4.876h12" fill="none" stroke="currentColor" display="var(--is-visible--only-mobile)"/><path d="M11.625 16.125h3v3h-8.25v-9h2.25v3h3v3z" fill="currentColor" display="var(--is-visible--only-mobile)"/><path d="M14.625 19.125v-3h-3v-3h-3v-3h-2.25v9h8.25zm0 0H18" fill="none" stroke="currentColor" stroke-width="1.2" display="var(--is-visible--only-mobile)"/><path d="M7.5 6.563h10" fill="none" stroke="currentColor" display="var(--is-visible--only-tablet)"/><path d="M12.188 15.938h2.5v2.5H7.811v-7.5h1.875v2.5h2.5v2.5z" fill="currentColor" display="var(--is-visible--only-tablet)"/><path d="M14.688 18.438v-2.5h-2.5v-2.5h-2.5v-2.5H7.812v7.5h6.875zm0 0H17.5" fill="none" stroke="currentColor" stroke-width="1.2" display="var(--is-visible--only-tablet)"/><path d="M4 2.5h16" fill="none" stroke="currentColor" stroke-width="1.2" display="var(--is-visible--only-desktop)"/><path d="M11.5 17.5h4v4h-11v-12h3v4h4v4z" fill="currentColor" display="var(--is-visible--only-desktop)"/><path d="M15.5 21.5v-4h-4v-4h-4v-4h-3v12h11zm0 0H20" fill="none" stroke="currentColor" stroke-width="1.2" display="var(--is-visible--only-desktop)"/></symbol><symbol id="feature-twofloors-nav"><path d="M7.5 6.563h10" fill="none" stroke="currentColor" display="var(--is-visible--mobile)"/><path d="M12.188 15.938h2.5v2.5H7.811v-7.5h1.875v2.5h2.5v2.5z" fill="currentColor" display="var(--is-visible--mobile)"/><path d="M14.688 18.438v-2.5h-2.5v-2.5h-2.5v-2.5H7.812v7.5h6.875zm0 0H17.5" fill="none" stroke="currentColor" stroke-width="1.2" display="var(--is-visible--mobile)"/><path d="M4 2.5h16" fill="none" stroke="currentColor" stroke-width="1.2" display="var(--is-visible--non-mobile)"/><path d="M11.5 17.5h4v4h-11v-12h3v4h4v4z" fill="currentColor" display="var(--is-visible--non-mobile)"/><path d="M15.5 21.5v-4h-4v-4h-4v-4h-3v12h11zm0 0H20" fill="none" stroke="currentColor" stroke-width="1.2" display="var(--is-visible--non-mobile)"/></symbol><symbol id="feature-twofloors"><path d="M1.5 21v-6.5h7v-7h6v-6H21" fill="none" stroke="currentColor" stroke-width="1.2" display="var(--is-visible--large-desktop)"/><path d="M3.5 19v-5.5h5v-5h5v-5H19" fill="none" stroke="currentColor" stroke-width="1.2" display="var(--is-visible--small-desktop)"/><path d="M4.5 17v-4.5h4v-4h4v-4H17" fill="none" stroke="currentColor" stroke-width="1.2" display="var(--is-visible--non-any-desktop)"/></symbol><symbol id="feature-whitebox-3"><path d="M15.8 3.5H3v4h12.8v-2H17a1 1 0 011 1v2.476a1 1 0 01-.778.975l-4.829 1.099a3 3 0 00-2.334 2.925v.525" fill="none" stroke="currentColor" stroke-width="1.2"/><path d="M9.667 13.5H9v5h2v-3" fill="none" stroke="currentColor"/></symbol><symbol id="fitness-icon"><path d="M21.1 21.8l-6.9-4L17 13c-.9 1.5-.4 3.3 1.1 4.1 1.3.7 2.9.4 3.8-.7l1.2.7 4.3 9.1c.1.3.1.6 0 .9-.3.5-.9.6-1.4.4L13 20" stroke="currentColor" fill="none" stroke-width="1.2" stroke-miterlimit="10" stroke-linecap="square"/></symbol><symbol id="info-pdf-small"><rect x=".6" y=".6" width="8.8" height="8.8" rx="4.4" fill="none" stroke="#988E7E" stroke-width="1.2"/><path d="M5 7.25v-3.5m.5-1h-1" fill="none" stroke="#988E7E" stroke-width="1.2" stroke-miterlimit="10"/></symbol><symbol id="info-pdf"><rect x=".75" y=".75" width="13.5" height="13.5" rx="6.75" fill="none" stroke="#565440" stroke-width="1.5"/><path d="M7.5 10.875v-5.25m.75-1.5h-1.5" fill="none" stroke="#565440" stroke-width="1.5" stroke-miterlimit="10"/></symbol><symbol id="info-small"><path display="var(--is-visible--only-desktop)" d="M8 12.5v-7m.5-2h-1" stroke="currentColor" stroke-width="1.2" stroke-miterlimit="10"/><path display="var(--is-visible--only-non-desktop)" d="M8 11.6V6m.623-1.6H7.345" stroke="currentColor" stroke-width="1.2" stroke-miterlimit="10"/></symbol><symbol id="info-tiny"><path d="M5 7.25v-3.5m.5-1h-1" fill="none" stroke="currentColor" stroke-width="1.2" stroke-miterlimit="10"/></symbol><symbol id="info"><path display="var(--is-visible--non-mobile)" d="M6 6v4.5H4v-6h2v-3H4v1.066" fill="none" stroke="currentColor" stroke-width="1.2" stroke-miterlimit="10"/><path display="var(--is-visible--mobile)" d="M5 10.5v-7m.5-2h-1" fill="none" stroke="currentColor" stroke-width="1.2" stroke-miterlimit="10"/></symbol><symbol id="key-xs"><circle display="var(--is-visible--only-desktop)" cx="6" cy="9" r="4" fill="none" stroke="currentColor" stroke-width="2"/><path display="var(--is-visible--only-desktop)" fill="none" stroke="currentColor" stroke-width="2" d="M9 9h8M15 9.5v3"/><circle display="var(--is-visible--non-desktop)" cx="6.375" cy="9.375" r="3.5" fill="none" stroke="currentColor" stroke-width="1.75"/><path display="var(--is-visible--non-desktop)" fill="none" stroke="currentColor" stroke-width="1.75" d="M9 9.375h7M14.25 9.813v2.625"/></symbol><symbol id="key"><path d="M19.943 18.136A4.088 4.088 0 0012 19.5a4.088 4.088 0 007.943 1.364h2.966v2.727h2.727v-2.727H27v-2.728h-7.057zm-3.852 2.728a1.363 1.363 0 110-2.727 1.363 1.363 0 010 2.727z" fill="currentColor"/></symbol><symbol id="lock" viewBox="0 0 18 18"><path d="M3.663 8.427a1.4 1.4 0 011.4-1.4h8a1.4 1.4 0 011.4 1.4v2.908a5.4 5.4 0 01-10.8 0V8.427zM5.832 6.428c0-2.631.583-4.764 3.23-4.764 2.648 0 3.095 3.387 3.095 3.387M9.076 12.259v2.293" stroke="currentColor" fill="none" stroke-width="1.2"/></symbol><symbol id="logo"><path d="M137.898.66h-19.755v4.174h19.755V.661zm-9.902 34.927c-7.144-.009-12.974-5.86-12.953-13 .02-7.133 5.841-12.93 12.973-12.924 7.158.007 12.997 5.84 12.984 12.97-.014 7.133-5.864 12.963-13.004 12.954zm-8.399-12.966c.008 4.66 3.766 8.424 8.41 8.425 4.654.001 8.463-3.807 8.451-8.448-.012-4.627-3.808-8.4-8.451-8.4a8.412 8.412 0 00-8.41 8.423zm-76.133 4.565V10.368h4.514v24.544h-3.281l-14.52-16.857v16.833h-4.51V10.327c.813 0 3.28-.014 3.28-.014s9.558 11.135 14.074 16.377c.111.13.228.256.443.496zM4.529 14.532v5.96h12.593v4.242H4.54v5.918h15.218v4.241H0V10.359h19.755v4.174L4.53 14.532zm106.877 20.366H91.671v-24.54h19.745v4.206H96.21v5.93h12.57v4.247H96.205v5.915h15.201v4.242zM86.3 10.36v4.211h-8.583v20.323h-4.502v-20.3h-8.606V10.36H86.3zm-31.412-.006h4.471v24.531h-4.471v-24.53zM19.758.66H.002v4.174h19.756V.661z" fill="currentColor"/></symbol><symbol id="mail-xs"><path d="M17 15.8H2.5v-2.5h14v-11h-14l7 6 7-6" fill="none" stroke="currentColor" stroke-width="1.2" stroke-miterlimit="10"/></symbol><symbol id="mail"><path d="M16.5 14.5H2V12h14V1H2l7 6 7-6" fill="none" stroke="currentColor" stroke-width="1.2" stroke-miterlimit="10"/></symbol><symbol id="mall-icon"><path d="M14.997 22.227c.89 1.892 2.783 3.228 5.01 3.228 2.226 0 4.119-1.336 5.01-3.228l2.56 1.224c-1.336 2.783-4.12 4.787-7.459 4.787A8.22 8.22 0 0111.88 20c0-4.564 3.562-8.238 8.127-8.238A8.22 8.22 0 0128.245 20" stroke="currentColor" fill="none" stroke-width="1.2" stroke-miterlimit="10"/><path d="M17.78 18.887a1.113 1.113 0 100-2.227 1.113 1.113 0 000 2.227zM22.233 18.887a1.113 1.113 0 100-2.227 1.113 1.113 0 000 2.227z" fill="#E9E4DC"/></symbol><symbol id="medic-icon"><path d="M20 18.6c0-1-.4-1.9-1.1-2.7-1.5-1.4-3.8-1.4-5.3.1s-1.5 3.8 0 5.3l6.4 6.4" stroke="currentColor" fill="none" stroke-width="1.2" stroke-miterlimit="10"/><path d="M20 18.6c0-1 .4-1.9 1.1-2.7 1.5-1.5 3.8-1.5 5.3 0s1.5 3.8 0 5.3l-4.8 4.4-6.2-6" stroke="currentColor" fill="none" stroke-width="1.2" stroke-miterlimit="10"/></symbol><symbol id="menu"><path d="M12 8h8M0 8h8M0 2h20M0 14h20" stroke="currentColor" fill="none" display="var(--is-visible--only-desktop)" stroke-width="1.2" stroke-miterlimit="10"/><path d="M11.367 8H18M2 8h6.996M2 2h16M2 14h16" stroke="currentColor" fill="none" display="var(--is-visible--non-desktop)" stroke-width="1.2" stroke-miterlimit="10"/></symbol><symbol id="more-formats"><path d="M18 10H2M10 2v16" fill="none" stroke="currentColor" stroke-width="2" display="var(--is-visible--non-mobile)"/><path d="M15 10H5M10 5v10" fill="none" stroke="currentColor" stroke-width="2" display="var(--is-visible--only-mobile)"/></symbol><symbol id="more"><path d="M18 10H2M10 2v16" fill="none" stroke="currentColor" stroke-width="2" display="var(--is-visible--only-desktop)"/><path d="M15 10H5M10 5v10" fill="none" stroke="currentColor" stroke-width="2" display="var(--is-visible--non-desktop)"/></symbol><symbol id="msu"><path display="var(--is-visible--only-desktop)" d="M10.5 0v4.987H8.006v7.35H.656v8.007h19.688v-3.282h-14.7" stroke="currentColor" fill="none" stroke-width="1.2" stroke-miterlimit="10"/><path display="var(--is-visible--only-desktop)" d="M20.344 14.831v-2.493h-7.35v-7.35h-2.588M.656 12.338V9.844M20.344 12.338V9.844" stroke="currentColor" fill="none" stroke-width="1.2" stroke-miterlimit="10"/><path display="var(--is-visible--non-desktop)" d="M10 4v3.8H8.1v5.6H2.5v6.1h15V17H6.3" stroke="currentColor" fill="none" stroke-width="1.2" stroke-miterlimit="10"/><path display="var(--is-visible--non-desktop)" d="M17.5 15.3v-1.9h-5.6V7.8H9.928M2.5 13.4v-1.9M17.5 13.4v-1.9" stroke="currentColor" fill="none" stroke-width="1.2" stroke-miterlimit="10"/></symbol><symbol id="mute"><path d="M.664 4.143l16 12.857h-2.947v3l-8-5.571h-4.21V7.57h2.947v4.715h1.684V7.143L13.717 2v9.857" stroke="currentColor" fill="none" stroke-width="1.2"/></symbol><symbol id="nocamera"><path display="var(--is-visible--only-desktop)" d="M1 41l9.989-9.989M41 1L10.989 31.011m8.035 0h10.389V11.122H1v19.89h9.989m18.424-12.787l11.543-4.44v14.562l-11.543-4.44v-5.682z" stroke="currentColor" fill="none" stroke-width="1.2"/><path display="var(--is-visible--non-desktop)" d="M11 31l4.995-4.994M31 11L15.995 26.006m4.017 0h5.194V16.06H11v9.945h4.995m9.211-6.393l5.772-2.22v7.28l-5.772-2.22v-2.84z" stroke="currentColor" fill="none" stroke-width="1.2"/></symbol><symbol id="panorama"><path display="var(--is-visible--only-desktop)" fill="none" d="M.625 18.75V1.25c0 2 4.25 3.5 9.375 3.5 2.375 0 4.625-.375 6.25-.875V16.25" stroke="currentColor" stroke-width="1.2" stroke-miterlimit="10"/><path display="var(--is-visible--only-desktop)" fill="none" d="M.625 18.75c0-2 4.25-3.5 9.375-3.5s9.375 1.625 9.375 3.5V1.25M3.75 3.875V16.25" stroke="currentColor" stroke-width="1.2" stroke-miterlimit="10"/><path display="var(--is-visible--non-desktop)" fill="none" d="M2.5 17V3c0 1.6 3.4 2.8 7.5 2.8 1.9 0 3.7-.3 5-.7V15" stroke="currentColor" stroke-width="1.2" stroke-miterlimit="10"/><path display="var(--is-visible--non-desktop)" fill="none" d="M2.5 17c0-1.6 3.4-2.8 7.5-2.8s7.5 1.3 7.5 2.8V3M5 5.1V15" stroke="currentColor" stroke-width="1.2" stroke-miterlimit="10"/></symbol><symbol id="park-icon"><path d="M21.8 25.8c1.5-1.5 2.4-3.6 2.4-5.8 0-3.1-1.7-5.8-4.2-7.3-2.5 1.5-4.2 4.2-4.2 7.3 0 3.1 1.7 5.7 4.2 7.1V18" stroke="currentColor" fill="none" stroke-width="1.2" stroke-miterlimit="10"/></symbol><symbol id="pause"><path d="M9.406 9.125V19.75H12.5V1H9.406v6.25m-5.312 8.102V1H1v18.75h3.094v-2.5" stroke="currentColor" fill="none" stroke-width="1.2" stroke-miterlimit="10"/></symbol><symbol id="pdf"><path d="M9.688 9.5v-8h2.666c2.52 0 3.334 2.249 3.334 3.826S14.816 8.9 12.297 8.9h-.72M18.5 9.5v-8h5M18.5 4.5h4M2.34 9.5v-8h2.657c1.744 0 2.344 1.051 2.344 2.103 0 1.051-.6 2.07-2.344 2.07h-.872" stroke="currentColor" fill="none" stroke-width="1.2"/></symbol><symbol id="phone-small"><path d="M4.3 5.4c-.9 2-.1 5.3 2.2 8 2.8 3.3 6.8 4.6 8.8 2.9l1.6-1.3-2.2-2.7-1.7 1.3c-1.2 1-3.4.3-4.9-1.6-1.5-1.9-1.9-4.1-.7-5.1L9 5.6 6.7 2.9" fill="none" stroke="currentColor" stroke-width="1.2" stroke-miterlimit="10" stroke-linecap="square"/></symbol><symbol id="phone"><path display="var(--is-visible--only-desktop)" d="M1.451 4.125c-1.125 2.5-.125 6.625 2.75 10 3.5 4.125 8.5 5.75 11 3.625l2-1.625-2.75-3.375-2.125 1.625c-1.5 1.25-4.25.375-6.125-2S3.826 7.25 5.326 6l2-1.625L4.451 1" fill="none" stroke="currentColor" stroke-width="1.2" stroke-miterlimit="10" stroke-linecap="square"/><path display="var(--is-visible--non-desktop)" d="M3.361 5.5c-.9 2-.1 5.3 2.2 8 2.8 3.3 6.8 4.6 8.8 2.9l1.6-1.3-2.2-2.7-1.7 1.3c-1.2 1-3.4.3-4.9-1.6-1.5-1.9-1.9-4.1-.7-5.1l1.6-1.3-2.3-2.7" fill="none" stroke="currentColor" stroke-width="1.2" stroke-miterlimit="10" stroke-linecap="square"/></symbol><symbol id="play-xs"><path d="M10 11l-8 6V5l8 6z" fill="none" stroke="currentColor" stroke-width="2"/></symbol><symbol id="play"><path fill="none" display="var(--is-visible--only-desktop)" d="M3 19.75V1l14 9.5-10.875 7.125v-10.5" stroke="currentColor" stroke-width="1.2" stroke-miterlimit="10"/><path fill="none" display="var(--is-visible--non-desktop)" d="M3.4 18V3l11.2 7.6-8.7 5.7V7.9" stroke="currentColor" stroke-width="1.2" stroke-miterlimit="10"/></symbol><symbol id="plus"><path display="var(--is-visible--only-desktop)" d="M10 2v16M18 10H2" fill="none" stroke="currentColor" stroke-width="2"/><path display="var(--is-visible--non-desktop)" d="M10 4v12M16 10H4" fill="none" stroke="currentColor" stroke-width="2"/></symbol><symbol id="profile"><circle cx="10" cy="5" r="4" fill="none" stroke="currentColor" stroke-width="1.5"/><path fill="none" stroke="currentColor" stroke-width="1.5" d="M19 19v-2a6 6 0 00-6-6H7a6 6 0 00-6 6v2"/></symbol><symbol id="reset"><path d="M11 5.8h4v-4" fill="none" stroke="currentColor" stroke-width="1.2" stroke-miterlimit="10"/><path fill="none" d="M3.5 8c0 2.5 2 4.5 4.5 4.5 1.2 0 2.4-.5 3.2-1.3L13 13c-1.3 1.2-3.1 2-5 2-3.9 0-7-3.1-7-7s3.1-7 7-7c3 0 5.6 1.9 6.6 4.5" stroke="currentColor" stroke-width="1.2" stroke-miterlimit="10"/></symbol><symbol id="sale"><circle cx="0" cy="0" r="2.9" fill="none" stroke="currentColor" stroke-width="1.2" transform="translate(14.5 15.5)"/><circle cx="0" cy="0" r="2.9" fill="none" stroke="currentColor" stroke-width="1.2" transform="translate(7.5 6.5)"/><path d="M6 18L16.5 3.5" stroke-linecap="round" fill="none" stroke="currentColor" stroke-width="1.2"/></symbol><symbol id="school-icon"><path d="M20 27.5c0-2.1 3.4-3.8 7.5-3.8V12.5" stroke="currentColor" fill="none" stroke-width="1.2" stroke-miterlimit="10"/><path d="M20 16.1c0-1.7 2.2-3.1 5.2-3.6v9.3M20 27.5c0-2.1-3.4-3.8-7.5-3.8V12.5c4.1 0 7.5 1.7 7.5 3.8v11.2z" stroke="currentColor" fill="none" stroke-width="1.2" stroke-miterlimit="10"/></symbol><symbol id="settings-xs"><path d="M9 3.667h6M1.667 3.667H3M14.334 8.333H15M1.667 8.333h6.666M9 13h6M1.667 13H3" fill="none" stroke="currentColor" stroke-miterlimit="10" stroke-linecap="square"/><path d="M5 5.667a2 2 0 100-4 2 2 0 000 4zM10.334 10.333a2 2 0 100-4 2 2 0 000 4zM5 15a2 2 0 100-4 2 2 0 000 4z" fill="currentColor"/></symbol><symbol id="settings"><path fill="none" display="var(--is-visible--only-desktop)" d="M9.838 9.616a5 5 0 10-6.428-7.66 5 5 0 006.428 7.66zM12.75 10.625l3.625 4.625-.5 1.875H14l-5.25-6.5" stroke="currentColor" stroke-width="1.2" stroke-miterlimit="10"/><path fill="none" display="var(--is-visible--non-desktop)" d="M9.87 9.693a4 4 0 10-5.142-6.128A4 4 0 009.87 9.693zM12.2 11l4.5 5.3-.4 1.5-1.6.1L9 11" stroke="currentColor" stroke-width="1.2" stroke-miterlimit="10"/></symbol><symbol id="settlement-icon-1-mobile"><rect width="39" height="39" x=".5" y=".5" fill="none" stroke="#C49F8A" rx="19.5"/><path fill="none" stroke="currentColor" stroke-width="1.2" d="M19 27h-6v-7h2.5v4.5l10-9V20H28v-7h-7"/></symbol><symbol id="settlement-icon-1"><rect width="59" height="59" x=".5" y=".5" fill="none" stroke="#C49F8A" rx="29.5"/><path fill="none" stroke="currentColor" stroke-width="1.2" d="M28 37h-6v-7h2.5v4.5l10-9V30H37v-7h-7"/></symbol><symbol id="settlement-icon-2-mobile"><rect width="39" height="39" x=".5" y=".5" fill="none" stroke="#C49F8A" rx="19.5"/><path fill="none" stroke="currentColor" stroke-width="1.2" d="M27 19h-6v-7h2.5v4.5L29 11m-16.5 9.5h7v7H17V23l-6 6"/></symbol><symbol id="settlement-icon-2"><rect width="59" height="59" x=".5" y=".5" fill="none" stroke="#C49F8A" rx="29.5"/><path fill="none" stroke="currentColor" stroke-width="1.2" d="M37 29h-6v-7h2.5v4.5L39 21m-16.5 9.5h7v7H27V33l-6 6"/></symbol><symbol id="settlement-icon-3-mobile"><rect width="39" height="39" x=".5" y=".5" fill="none" stroke="#C49F8A" rx="19.5"/><path fill="none" stroke="currentColor" stroke-width="1.2" d="M13 18h15v4H13"/></symbol><symbol id="settlement-icon-3"><rect width="59" height="59" x=".5" y=".5" fill="none" stroke="#C49F8A" rx="29.5"/><path fill="none" stroke="currentColor" stroke-width="1.2" d="M22.5 28h15v4h-15"/></symbol><symbol id="shop-icon"><path d="M26 27.5H14v-12h3c0-1.7 1.3-3 3-3s3 1.3 3 3h3V25h-7.9" stroke="currentColor" fill="none" stroke-width="1.2" stroke-miterlimit="10" stroke-linecap="square"/><path d="M17 15.5h6" stroke="currentColor" fill="none" stroke-width="1.2" stroke-miterlimit="10"/></symbol><symbol id="sort"><path d="M1 1l4 4 4-4" fill="none" stroke="currentColor" stroke-width="2" display="var(--is-visible--non-mobile)"/><path d="M2 2l3 3 3-3" fill="none" stroke="currentColor" stroke-width="1.5" display="var(--is-visible--mobile)"/></symbol><symbol id="swipe"><path display="var(--is-visible--non-mobile)" d="M14.666 6l4 4-4 4M5.333 6l-4 4 4 4" fill="none" stroke="currentColor" stroke-width="1.2"/><path display="var(--is-visible--mobile)" d="M13.111 7.333L15.778 10l-2.667 2.667M6.89 7.333L4.223 10l2.666 2.667" fill="none" stroke="currentColor" stroke-width="1.2"/></symbol><symbol id="taxi"><path fill="currentColor" d="M.5 5h5v5h-5zM10.5 5h5v5h-5zM20.5 5h5v5h-5zM15.5 0h5v5h-5zM5.5 0h5v5h-5z"/></symbol><symbol id="terrace-1"><path d="M.5 15V1H13v2.5H8M3 15V3.5h5m0 0V13" stroke="currentColor" fill="none" stroke-width="1.2" stroke-miterlimit="10"/><path d="M15.5 1v14H.5v-3" stroke="currentColor" fill="none" stroke-width="1.2" stroke-miterlimit="10"/></symbol><symbol id="terrace-2"><path d="M9.5 4.5h5v-2h-13v2H8v9H5.5h5" stroke="currentColor" fill="none" stroke-width="1.2"/></symbol><symbol id="terrace-3"><path d="M15.072 4.93A9.969 9.969 0 008 2 9.969 9.969 0 00.93 4.93l2.105 2.137A6.978 6.978 0 018 5c1.942 0 3.698.79 4.966 2.067L10.85 9.193A3.988 3.988 0 008 8a3.988 3.988 0 00-2.85 1.193L8 12v2" stroke="currentColor" fill="none" stroke-width="1.2"/></symbol><symbol id="terrace-4"><path d="M14.1 3.3c1.2 1.3 1.7 2.6 1.7 2.6s-1.8 4.9-7.4 4.9C2.8 10.8 1 5.9 1 5.9S2.9 1 8.4 1" stroke="currentColor" fill="none" stroke-width="1.2" stroke-miterlimit="10"/><path d="M4.7 4.7c0 2 1.7 3.7 3.7 3.7s3.7-1.7 3.7-3.7S10.4 1 8.4 1" stroke="currentColor" fill="none" stroke-width="1.2" stroke-miterlimit="10"/></symbol><symbol id="tour-header-en"><path fill-rule="evenodd" clip-rule="evenodd" d="M17.058.81h3.085c1.669 0 2.813.76 3.517 1.792.685 1.003.94 2.237.94 3.236 0 1.01-.277 2.181-.992 3.116-.733.959-1.893 1.619-3.531 1.619h-.899v-1.2h.899c1.276 0 2.079-.495 2.578-1.148.517-.676.745-1.572.745-2.387 0-.826-.216-1.806-.731-2.56-.496-.726-1.28-1.267-2.526-1.267h-2.486V10.5h-1.2V.81h.6zM14.24 9.454c-.623.5-1.42.746-2.38.746a5.01 5.01 0 01-2.917-.92l-.222-.154.71-1.015.23.158c.73.494 1.456.728 2.198.728.637 0 1.136-.17 1.472-.436.33-.263.517-.632.517-1.079 0-.443-.165-.8-.482-1.051-.324-.257-.836-.428-1.57-.428h-1.292v-1.18h1.214c.688 0 1.16-.164 1.463-.438.32-.29.475-.625.475-1.007 0-.407-.169-.742-.459-.98-.293-.242-.725-.395-1.26-.395-.777 0-1.452.253-2.027.774l-.211.191-.795-.889.183-.179c.685-.67 1.796-1.1 2.875-1.1.884 0 1.62.235 2.181.716.571.478.865 1.085.865 1.804 0 .864-.465 1.6-1.188 2.022.859.4 1.38 1.187 1.38 2.152 0 .79-.32 1.446-.96 1.96z" fill="#2C2926"/><path d="M2.68 21h1.288v-6.897h2.376v-1.232H.304v1.232h2.377V21zM11.238 21.132c1.199 0 2.2-.407 3.025-1.221.825-.814 1.232-1.804 1.232-2.97 0-1.166-.407-2.156-1.232-2.981-.825-.825-1.815-1.232-2.992-1.232-1.166 0-2.156.418-2.981 1.243-.825.825-1.232 1.826-1.232 3.003 0 1.166.396 2.156 1.199 2.959.803.803 1.804 1.199 2.98 1.199zm.033-1.243c-.825 0-1.507-.286-2.068-.847-.55-.561-.825-1.265-.825-2.09 0-.847.275-1.551.836-2.112a2.782 2.782 0 012.057-.858c.814 0 1.496.286 2.057.847.56.561.847 1.276.847 2.123 0 .836-.286 1.54-.847 2.101-.561.561-1.243.836-2.057.836zM20.319 21.143c.89 0 1.617-.253 2.178-.77.56-.517.836-1.254.836-2.189v-5.313h-1.276v5.148c0 1.188-.65 1.881-1.738 1.881-1.1 0-1.75-.649-1.75-1.881v-5.148h-1.264v5.313c0 .935.275 1.661.836 2.178.56.517 1.287.781 2.178.781zM31.516 21l-2.167-3.311c1.177-.319 1.815-1.276 1.815-2.343a2.48 2.48 0 00-.682-1.749c-.451-.484-1.1-.726-1.947-.726h-2.871V21h1.265v-3.19h1.078l1.98 3.19h1.529zm-2.981-6.93c.836 0 1.32.55 1.32 1.265 0 .737-.495 1.298-1.518 1.298h-1.408V14.07h1.606z" fill="#2C2926"/></symbol><symbol id="tour-header"><path fill="none" stroke="currentColor" stroke-width="1.2" d="M11.058 10.5V1.41h3.085C17.058 1.41 18 4.014 18 5.839c0 1.825-1.008 4.135-3.923 4.135h-.832"/><text x="2" y="10" fill="currentColor" stroke-width=".5" font-family="inherit" font-size="12">&#x417;</text><path fill="currentColor" d="M2.653 21H3.94v-6.897h2.376v-1.232H.277v1.232h2.376V21zm5.634.132c.66 0 1.21-.242 1.64-.715.428-.473.692-.913 1.011-1.584.528-1.1 1.1-2.365 1.837-4.004l.87-1.947h-1.43l-1.717 4.103-1.826-4.103H7.198l2.63 5.478c-.265.517-.408.759-.705 1.122-.275.352-.605.517-.968.517-.198 0-.418-.055-.67-.154l-.11 1.078c.263.143.571.209.912.209zm6.78-8.261V21h1.265v-3.014h1.43c.924 0 1.628-.242 2.1-.737a2.508 2.508 0 00.716-1.804c0-.715-.231-1.32-.693-1.815-.451-.506-1.122-.759-2.013-.759h-2.805zm1.265 3.949v-2.761h1.595c.869 0 1.364.605 1.364 1.364 0 .759-.517 1.397-1.496 1.397h-1.463z"/></symbol><symbol id="tour-main"><path fill="none" d="M20.625 18.75V1.25c0 2 4.25 3.5 9.375 3.5 2.375 0 4.625-.375 6.25-.875V16.25" stroke="currentColor" stroke-width="1.2" stroke-miterlimit="10"/><path fill="none" d="M20.625 18.75c0-2 4.25-3.5 9.375-3.5s9.375 1.625 9.375 3.5V1.25M23.75 3.875V16.25" stroke="currentColor" stroke-width="1.2" stroke-miterlimit="10"/><path fill="currentColor" d="M13.292 40.132c.836 0 1.518-.22 2.035-.66a2.159 2.159 0 00.792-1.716c0-1.001-.583-1.771-1.584-2.002v-.044c.825-.264 1.397-.979 1.397-1.848 0-.605-.242-1.111-.715-1.518-.473-.407-1.067-.616-1.804-.616-.935 0-1.881.363-2.486.968l.638.891c.605-.451 1.188-.682 1.727-.682.759 0 1.353.451 1.353 1.166 0 .715-.583 1.199-1.43 1.199h-.968v1.144h1.012c.913 0 1.54.528 1.54 1.287 0 .748-.594 1.265-1.551 1.265-.605 0-1.254-.22-1.947-.66l-.561 1.023c.814.539 1.66.803 2.552.803zM21.065 40c1.21 0 2.156-.363 2.849-1.089.693-.726 1.045-1.716 1.045-2.959 0-1.254-.341-2.244-1.023-2.981-.671-.737-1.595-1.1-2.772-1.1h-3.07V40h2.97zm-1.705-6.919h1.77c.782 0 1.398.264 1.838.803.45.539.67 1.21.67 2.035 0 .836-.22 1.529-.67 2.068-.44.539-1.056.803-1.848.803h-1.76v-5.709zM31.235 40h1.287v-6.897h2.376v-1.232H28.86v1.232h2.376V40zm5.634.132c.66 0 1.21-.242 1.639-.715.429-.473.693-.913 1.012-1.584.528-1.1 1.1-2.365 1.837-4.004l.869-1.947h-1.43l-1.716 4.103-1.826-4.103H35.78l2.629 5.478c-.264.517-.407.759-.704 1.122-.275.352-.605.517-.968.517-.198 0-.418-.055-.671-.154l-.11 1.078c.264.143.572.209.913.209zm6.78-8.261V40h1.265v-3.014h1.43c.924 0 1.628-.242 2.1-.737a2.508 2.508 0 00.716-1.804c0-.715-.231-1.32-.693-1.815-.451-.506-1.122-.759-2.013-.759h-2.805zm1.265 3.949v-2.761h1.595c.869 0 1.364.605 1.364 1.364 0 .759-.517 1.397-1.496 1.397h-1.463z"/></symbol><symbol id="tour-modal-en"><path fill="none" d="M.625 18.75V1.25c0 2 4.25 3.5 9.375 3.5 2.375 0 4.625-.375 6.25-.875V16.25" stroke="currentColor" stroke-width="1.2" stroke-miterlimit="10"/><path fill="none" d="M.625 18.75c0-2 4.25-3.5 9.375-3.5s9.375 1.625 9.375 3.5V1.25M3.75 3.875V16.25" stroke="currentColor" stroke-width="1.2" stroke-miterlimit="10"/><path fill="currentColor" d="M43.25 14.902c.988 0 1.794-.26 2.405-.78.624-.533.936-1.209.936-2.028 0-1.183-.69-2.093-1.872-2.366v-.052c.975-.312 1.65-1.157 1.65-2.184 0-.715-.285-1.313-.844-1.794-.56-.48-1.261-.728-2.132-.728-1.105 0-2.223.43-2.938 1.144l.754 1.053c.715-.533 1.404-.806 2.04-.806.898 0 1.6.533 1.6 1.378 0 .845-.69 1.417-1.69 1.417h-1.144v1.352h1.196c1.079 0 1.82.624 1.82 1.521 0 .884-.702 1.495-1.833 1.495-.715 0-1.482-.26-2.301-.78l-.663 1.21c.962.636 1.963.948 3.016.948zM52.436 14.746c1.43 0 2.548-.429 3.367-1.287.82-.858 1.235-2.028 1.235-3.497 0-1.482-.403-2.652-1.209-3.523-.793-.87-1.885-1.3-3.276-1.3h-3.627v9.607h3.51zM50.421 6.57h2.093c.923 0 1.651.312 2.171.95.533.636.793 1.43.793 2.404 0 .988-.26 1.807-.793 2.444-.52.637-1.248.95-2.184.95h-2.08V6.568zM64.456 14.746h1.521v-8.15h2.808V5.138h-7.137v1.456h2.808v8.151zM74.57 14.902c1.416 0 2.6-.48 3.574-1.443.975-.962 1.456-2.132 1.456-3.51 0-1.378-.48-2.548-1.456-3.523C77.17 5.451 76 4.97 74.608 4.97c-1.378 0-2.548.494-3.523 1.47-.975.974-1.456 2.157-1.456 3.548 0 1.378.468 2.548 1.417 3.497.95.95 2.132 1.417 3.523 1.417zm.038-1.469c-.975 0-1.78-.338-2.444-1-.65-.664-.975-1.496-.975-2.47 0-1.002.325-1.834.988-2.497.663-.676 1.482-1.014 2.431-1.014.962 0 1.768.338 2.431 1.001.663.663 1.001 1.508 1.001 2.51 0 .987-.338 1.82-1 2.482-.664.663-1.47.988-2.432.988zM85.301 14.915c1.053 0 1.911-.299 2.574-.91.663-.61.988-1.482.988-2.587V5.14h-1.508v6.084c0 1.404-.767 2.223-2.054 2.223-1.3 0-2.067-.767-2.067-2.223V5.14H81.74v6.28c0 1.104.325 1.962.988 2.573s1.521.923 2.574.923zM98.534 14.746l-2.561-3.913c1.391-.377 2.145-1.508 2.145-2.769a2.93 2.93 0 00-.806-2.067c-.533-.572-1.3-.858-2.301-.858h-3.393v9.607h1.495v-3.77h1.274l2.34 3.77h1.807zm-3.523-8.19c.988 0 1.56.65 1.56 1.495 0 .871-.585 1.534-1.794 1.534h-1.664V6.556h1.898z"/></symbol><symbol id="tour-modal-xs-en"><path fill="none" d="M1 16V2c0 1.6 3.4 2.8 7.5 2.8 1.9 0 3.7-.3 5-.7V14" stroke="currentColor" stroke-width="1.2" stroke-miterlimit="10"/><path fill="none" d="M1 16c0-1.6 3.4-2.8 7.5-2.8S16 14.5 16 16V2M3.5 4.1V14" stroke="currentColor" stroke-width="1.2" stroke-miterlimit="10"/><path fill="currentColor" d="M28.75 12.854c.684 0 1.242-.18 1.665-.54.432-.369.648-.837.648-1.404 0-.819-.477-1.449-1.296-1.638v-.036c.675-.216 1.143-.8 1.143-1.512 0-.495-.198-.909-.585-1.242-.387-.333-.873-.504-1.476-.504-.765 0-1.539.297-2.034.792l.522.73c.495-.37.972-.559 1.413-.559.621 0 1.107.37 1.107.954 0 .585-.477.981-1.17.981h-.792v.936h.828c.747 0 1.26.432 1.26 1.053 0 .612-.486 1.035-1.269 1.035-.495 0-1.026-.18-1.593-.54l-.459.837c.666.441 1.36.657 2.088.657zM35.29 12.746c.99 0 1.764-.297 2.33-.89.568-.595.856-1.405.856-2.422 0-1.026-.28-1.836-.837-2.439-.55-.603-1.305-.9-2.268-.9H32.86v6.651h2.43zm-1.395-5.66h1.449c.639 0 1.143.215 1.503.656.369.441.549.99.549 1.665 0 .684-.18 1.251-.55 1.692-.36.441-.863.657-1.511.657h-1.44v-4.67zM43.971 12.746h1.053V7.103h1.944V6.095h-4.94v1.008h1.943v5.643zM51.153 12.854c.98 0 1.8-.333 2.475-.999.675-.666 1.008-1.476 1.008-2.43 0-.954-.333-1.764-1.008-2.439s-1.485-1.008-2.448-1.008c-.954 0-1.764.342-2.44 1.017-.674.675-1.007 1.494-1.007 2.457 0 .954.324 1.764.98 2.421.658.657 1.477.981 2.44.981zm.027-1.017a2.294 2.294 0 01-1.692-.693c-.45-.459-.675-1.035-.675-1.71 0-.693.225-1.269.684-1.728a2.277 2.277 0 011.683-.702c.666 0 1.224.234 1.683.693.459.46.693 1.044.693 1.737 0 .684-.234 1.26-.693 1.72-.46.458-1.017.683-1.683.683zM58.763 12.863c.729 0 1.323-.207 1.782-.63.459-.423.683-1.026.683-1.79V6.094h-1.044v4.212c0 .972-.53 1.54-1.421 1.54-.9 0-1.431-.532-1.431-1.54V6.095h-1.035v4.347c0 .765.225 1.36.684 1.782.459.423 1.052.64 1.782.64zM68.104 12.746l-1.773-2.709c.963-.26 1.485-1.044 1.485-1.917 0-.558-.19-1.035-.558-1.43-.37-.397-.9-.595-1.593-.595h-2.35v6.651h1.036v-2.61h.882l1.62 2.61h1.25zm-2.44-5.67c.685 0 1.08.45 1.08 1.035 0 .603-.404 1.062-1.241 1.062H64.35V7.076h1.314z"/></symbol><symbol id="tour-modal-xs"><path fill="none" d="M6 16V2c0 1.6 3.4 2.8 7.5 2.8 1.9 0 3.7-.3 5-.7V14" stroke="#E9E4DC" stroke-width="1.2" stroke-miterlimit="10"/><path fill="none" d="M6 16c0-1.6 3.4-2.8 7.5-2.8S21 14.5 21 16V2M8.5 4.1V14" stroke="#E9E4DC" stroke-width="1.2" stroke-miterlimit="10"/><path fill="#E9E4DC" d="M33.75 12.854c.684 0 1.242-.18 1.665-.54.432-.369.648-.837.648-1.404 0-.819-.477-1.449-1.296-1.638v-.036c.675-.216 1.143-.8 1.143-1.512 0-.495-.198-.909-.585-1.242-.387-.333-.873-.504-1.476-.504-.765 0-1.539.297-2.034.792l.522.73c.495-.37.972-.559 1.413-.559.621 0 1.107.37 1.107.954 0 .585-.477.981-1.17.981h-.792v.936h.828c.747 0 1.26.432 1.26 1.053 0 .612-.486 1.035-1.269 1.035-.495 0-1.026-.18-1.593-.54l-.459.837c.666.441 1.36.657 2.088.657zM40.29 12.746c.99 0 1.764-.297 2.33-.89.568-.595.856-1.405.856-2.422 0-1.026-.28-1.836-.837-2.439-.55-.603-1.305-.9-2.268-.9H37.86v6.651h2.43zm-1.395-5.66h1.449c.639 0 1.143.215 1.503.656.369.441.549.99.549 1.665 0 .684-.18 1.251-.55 1.692-.36.441-.863.657-1.511.657h-1.44v-4.67zM48.971 12.746h1.053V7.103h1.944V6.095h-4.94v1.008h1.943v5.643zM53.76 12.854c.54 0 .99-.198 1.342-.585.35-.387.567-.747.828-1.296.432-.9.9-1.935 1.503-3.276l.71-1.593h-1.17L55.57 9.461l-1.494-3.357H52.87l2.15 4.482c-.215.423-.332.621-.575.918-.225.288-.495.423-.792.423-.162 0-.342-.045-.55-.126l-.09.882c.217.117.469.171.748.171zM59.488 6.095v6.651h1.035V10.28h1.17c.756 0 1.332-.198 1.719-.603.387-.405.585-.89.585-1.476 0-.585-.19-1.08-.567-1.485-.37-.414-.918-.62-1.647-.62h-2.295zm1.035 3.231V7.067h1.305c.71 0 1.116.495 1.116 1.116 0 .621-.423 1.143-1.224 1.143h-1.197z"/></symbol><symbol id="tour-modal"><path fill="none" d="M.625 18.75V1.25c0 2 4.25 3.5 9.375 3.5 2.375 0 4.625-.375 6.25-.875V16.25" stroke="currentColor" stroke-width="1.2" stroke-miterlimit="10"/><path fill="none" d="M.625 18.75c0-2 4.25-3.5 9.375-3.5s9.375 1.625 9.375 3.5V1.25M3.75 3.875V16.25" stroke="currentColor" stroke-width="1.2" stroke-miterlimit="10"/><path fill="currentColor" d="M43.25 14.902c.988 0 1.794-.26 2.405-.78.624-.533.936-1.209.936-2.028 0-1.183-.69-2.093-1.872-2.366v-.052c.975-.312 1.65-1.157 1.65-2.184 0-.715-.285-1.313-.844-1.794-.56-.48-1.261-.728-2.132-.728-1.105 0-2.223.43-2.938 1.144l.754 1.053c.715-.533 1.404-.806 2.04-.806.898 0 1.6.533 1.6 1.378 0 .845-.69 1.417-1.69 1.417h-1.144v1.352h1.196c1.079 0 1.82.624 1.82 1.521 0 .884-.702 1.495-1.833 1.495-.715 0-1.482-.26-2.301-.78l-.663 1.21c.962.636 1.963.948 3.016.948zM52.436 14.746c1.43 0 2.548-.429 3.367-1.287.82-.858 1.235-2.028 1.235-3.497 0-1.482-.403-2.652-1.209-3.523-.793-.87-1.885-1.3-3.276-1.3h-3.627v9.607h3.51zM50.421 6.57h2.093c.923 0 1.651.312 2.171.95.533.636.793 1.43.793 2.404 0 .988-.26 1.807-.793 2.444-.52.637-1.248.95-2.184.95h-2.08V6.568zM64.456 14.746h1.521v-8.15h2.808V5.138h-7.137v1.456h2.808v8.151zM71.114 14.902c.78 0 1.43-.286 1.937-.845.507-.559.82-1.079 1.196-1.872.624-1.3 1.3-2.795 2.171-4.732l1.027-2.3h-1.69L73.727 10 71.57 5.152h-1.742l3.107 6.474c-.312.611-.48.897-.832 1.326-.325.416-.715.611-1.144.611-.234 0-.494-.065-.793-.182l-.13 1.274c.312.17.676.247 1.08.247zM79.126 5.14v9.606h1.495v-3.562h1.69c1.092 0 1.924-.286 2.483-.87.56-.586.845-1.288.845-2.133s-.273-1.56-.819-2.145c-.533-.598-1.326-.897-2.379-.897h-3.315zm1.495 4.666V6.543h1.885c1.027 0 1.612.715 1.612 1.612 0 .897-.61 1.651-1.768 1.651h-1.729z"/></symbol><symbol id="unmute"><path fill="none" d="M13.717 17v3l-8-5.571h-4.21V7.57h2.947v4.715h1.684V7.143L13.717 2v9.857" stroke="currentColor" stroke-width="1.2"/></symbol><symbol id="video-en"><path fill="none" d="M1.25 20V1.25l14 9.5-10.875 7.125v-10.5" stroke="currentColor" stroke-width="1.2" stroke-miterlimit="10"/><path fill="currentColor" d="M39.693 13.276l-2.886-7.137H35.09l4.082 9.607h1l4.044-9.607h-1.664l-2.86 7.137zM46.02 15.746h1.496V6.139H46.02v9.607zM53.885 15.746c1.43 0 2.548-.429 3.367-1.287.819-.858 1.235-2.028 1.235-3.497 0-1.482-.403-2.652-1.21-3.523-.792-.871-1.884-1.3-3.275-1.3h-3.627v9.607h3.51zM51.87 7.569h2.093c.923 0 1.65.312 2.17.949.534.637.794 1.43.794 2.405 0 .988-.26 1.807-.793 2.444-.52.637-1.248.949-2.184.949h-2.08V7.569zM66.946 15.746v-1.417h-4.654v-2.743h4.303v-1.417h-4.303V7.556h4.641V6.139h-6.136v9.607h6.15zM73.517 15.902c1.417 0 2.6-.481 3.575-1.443.975-.962 1.456-2.132 1.456-3.51 0-1.378-.48-2.548-1.456-3.523-.975-.975-2.145-1.456-3.536-1.456-1.378 0-2.548.494-3.523 1.469-.975.975-1.456 2.158-1.456 3.549 0 1.378.468 2.548 1.417 3.497.95.949 2.132 1.417 3.523 1.417zm.04-1.469c-.976 0-1.782-.338-2.445-1.001-.65-.663-.975-1.495-.975-2.47 0-1.001.325-1.833.988-2.496.663-.676 1.482-1.014 2.431-1.014.962 0 1.768.338 2.431 1.001.663.663 1.001 1.508 1.001 2.509 0 .988-.338 1.82-1 2.483-.664.663-1.47.988-2.432.988z"/></symbol><symbol id="video-play"><path d="M1.25 20V1.25l14 9.5-10.875 7.125v-10.5" stroke="currentColor" fill="none" stroke-width="1.2" stroke-miterlimit="10"/></symbol><symbol id="video-xs-en"><path fill="none" d="M8 15V2l10 6.587-7.768 4.94v-7.28" stroke="currentColor" stroke-width="1.2" stroke-miterlimit="10"/><path fill="currentColor" d="M33.249 10.29l-1.998-4.94h-1.188L32.889 12h.693l2.799-6.65h-1.152l-1.98 4.94zM37.81 12h1.035V5.35H37.81V12zM43.434 12c.99 0 1.764-.297 2.331-.89.567-.595.855-1.405.855-2.422 0-1.026-.279-1.836-.837-2.439-.549-.603-1.305-.9-2.268-.9h-2.51V12h2.43zM42.04 6.34h1.45c.638 0 1.142.215 1.502.656.37.441.55.99.55 1.665 0 .684-.18 1.251-.55 1.692-.36.441-.864.657-1.512.657h-1.44V6.34zM52.657 12v-.98h-3.222v-1.9h2.979v-.98h-2.98V6.33h3.214v-.98H48.4V12h4.257zM57.386 12.108c.98 0 1.8-.333 2.475-.999.675-.666 1.008-1.476 1.008-2.43 0-.954-.333-1.764-1.008-2.439s-1.485-1.008-2.448-1.008c-.954 0-1.764.342-2.44 1.017-.674.675-1.007 1.494-1.007 2.457 0 .954.324 1.764.98 2.421.658.657 1.477.981 2.44.981zm.027-1.017a2.294 2.294 0 01-1.692-.693c-.45-.459-.675-1.035-.675-1.71 0-.693.225-1.269.684-1.728a2.277 2.277 0 011.683-.702c.666 0 1.224.234 1.683.693.459.46.693 1.044.693 1.737 0 .684-.234 1.26-.693 1.72-.46.458-1.017.683-1.683.683z"/></symbol><symbol id="video-xs"><path fill="none" d="M7 15V2l10 6.587-7.768 4.94v-7.28" stroke="currentColor" stroke-width="1.2" stroke-miterlimit="10"/><path fill="currentColor" d="M33.464 8.364c.55-.207.91-.756.91-1.359 0-.44-.163-.828-.496-1.16-.324-.334-.774-.496-1.359-.496H29.81V12h2.835c.64 0 1.152-.189 1.521-.567a1.87 1.87 0 00.558-1.35c0-.8-.44-1.503-1.26-1.719zm-1.098-2.07c.585 0 .954.37.954.828 0 .477-.369.891-.99.891h-1.494V6.294h1.53zm-1.53 4.761V8.931h1.602c.783 0 1.206.486 1.206 1.071 0 .567-.45 1.053-1.179 1.053h-1.629zM37.08 12l3.753-4.779v4.78h1.026V5.348h-.612l-3.771 4.815V5.35H36.45V12h.63zM48.917 5.35h-3.744l-.234 1.844c-.135 1.09-.27 1.926-.423 2.493-.144.567-.315 1.017-.504 1.332h-.53v2.331h1.034V12h4.023v1.35h1.035v-2.33h-.657V5.35zm-3.77 5.67c.332-.73.63-2.143.89-4.24l.054-.44h1.791v4.68h-2.736zM55.568 12v-.98h-3.222v-1.9h2.979v-.98h-2.98V6.33h3.214v-.98H51.31V12h4.257zM60.297 12.108c.981 0 1.8-.333 2.475-.999.675-.666 1.008-1.476 1.008-2.43 0-.954-.333-1.764-1.008-2.439s-1.485-1.008-2.448-1.008c-.954 0-1.764.342-2.439 1.017-.675.675-1.008 1.494-1.008 2.457 0 .954.324 1.764.981 2.421.657.657 1.476.981 2.44.981zm.027-1.017a2.294 2.294 0 01-1.692-.693c-.45-.459-.675-1.035-.675-1.71 0-.693.225-1.269.684-1.728a2.277 2.277 0 011.683-.702c.666 0 1.224.234 1.683.693.46.46.693 1.044.693 1.737 0 .684-.234 1.26-.693 1.72-.459.458-1.017.683-1.683.683z"/></symbol><symbol id="video"><path fill="none" d="M1.25 20V1.25l14 9.5-10.875 7.125v-10.5" stroke="currentColor" stroke-width="1.2" stroke-miterlimit="10"/><path fill="currentColor" d="M41.448 10.494c.793-.299 1.313-1.092 1.313-1.963 0-.637-.234-1.196-.715-1.677-.468-.481-1.118-.715-1.963-.715H36.17v9.607h4.095c.923 0 1.664-.273 2.197-.819.533-.546.806-1.196.806-1.95 0-1.157-.637-2.171-1.82-2.483zm-1.586-2.99c.845 0 1.378.533 1.378 1.196 0 .689-.533 1.287-1.43 1.287h-2.158V7.504h2.21zm-2.21 6.877v-3.068h2.314c1.13 0 1.742.702 1.742 1.547 0 .819-.65 1.521-1.703 1.521h-2.353zM46.41 15.746l5.422-6.903v6.903h1.481V6.139h-.884l-5.447 6.955V6.139h-1.481v9.607h.91zM63.249 6.139h-5.408l-.338 2.665c-.195 1.573-.39 2.782-.611 3.601-.208.819-.455 1.469-.728 1.924h-.767v3.367h1.495v-1.95h5.811v1.95h1.495v-3.367h-.949v-8.19zm-5.447 8.19c.481-1.053.91-3.094 1.287-6.123l.078-.637h2.587v6.76h-3.952zM72.596 15.746v-1.417h-4.654v-2.743h4.303v-1.417h-4.303V7.556h4.64V6.139h-6.135v9.607h6.149zM79.167 15.902c1.417 0 2.6-.481 3.575-1.443.975-.962 1.456-2.132 1.456-3.51 0-1.378-.481-2.548-1.456-3.523-.975-.975-2.145-1.456-3.536-1.456-1.378 0-2.548.494-3.523 1.469-.975.975-1.456 2.158-1.456 3.549 0 1.378.468 2.548 1.417 3.497.949.949 2.132 1.417 3.523 1.417zm.039-1.469c-.975 0-1.781-.338-2.444-1.001-.65-.663-.975-1.495-.975-2.47 0-1.001.325-1.833.988-2.496.663-.676 1.482-1.014 2.43-1.014.963 0 1.769.338 2.432 1.001.663.663 1 1.508 1 2.509 0 .988-.337 1.82-1 2.483s-1.47.988-2.431.988z"/></symbol><symbol id="vk"><path display="var(--is-visible--mobile)" d="M15.26 10.923h0l.008.006c.301.274.479.464.636.632.083.088.16.17.245.255.111.11.249.231.424.32.189.094.382.13.584.13h1.54a.913.913 0 00.602-.211.91.91 0 00.301-.707c0-.209-.068-.4-.139-.55a3.03 3.03 0 00-.287-.47 8.931 8.931 0 00-.867-.99 6.584 6.584 0 00-.526-.56l-.124-.119a16.328 16.328 0 01-.134-.13 34.319 34.319 0 00.754-1.07c.21-.314.432-.657.612-.97.168-.293.342-.627.404-.9h0l.002-.01c.045-.22.047-.537-.178-.8-.219-.256-.526-.31-.745-.31h0-.001 0-.001 0-.001 0-.001 0-.001 0-.001 0-.001 0-.001 0-.002 0-.001 0-.002 0-.001 0-.002 0-.001 0-.002 0-.002 0H18.337h0-.007 0-.005 0-.004 0-.007 0H17c-.24 0-.48.05-.689.197a1.175 1.175 0 00-.371.452l-.002.003h0v.002l-.006.011-.023.045-.091.173c-.08.148-.196.356-.339.592-.23.38-.52.817-.832 1.193v-1.7c0-.09-.002-.196-.018-.3a.903.903 0 00-.148-.39c-.232-.33-.6-.347-.769-.347h-2.199a.906.906 0 00-.58.2.798.798 0 00-.292.618c0 .262.113.452.198.566.038.051.079.1.106.131l.004.004c.031.037.053.062.074.09.056.071.131.178.131.462v1.162a6.202 6.202 0 01-.157-.217A9.734 9.734 0 019.9 5.256c-.073-.206-.188-.464-.431-.644-.251-.185-.534-.211-.752-.211H7.345a.962.962 0 00-.65.243.903.903 0 00-.295.674c0 .173.046.403.116.651.076.264.192.591.361.972.339.761.893 1.745 1.765 2.86 1.215 1.557 2.862 2.466 4.431 2.466.403 0 .786-.026 1.075-.166a.933.933 0 00.54-.892v-.758c.137.092.324.24.572.472zm2.151-2.232s0 0 0 0v0zm-2.76-.756v-.002.002zm-2.983.232s-.002 0-.005-.003a.038.038 0 01.005.003zm3.023 1.898v0zm-.31.235h-.01H14.382z" stroke="currentColor" fill="none" stroke-width="1.2"/><path display="var(--is-visible--non-mobile)" clip-rule="evenodd" d="M23.808 14h-3.002c-.98 0-1.103-.678-2.9-2.305-1.514-1.419-2.164-1.53-2.531-1.53-.327 0-.552.232-.552.774v2.17c0 .639-.388.891-1.98.891-2.614 0-5.513-1.53-7.718-4.359C1.837 5.438 1 2.3 1 1.621c0-.369.285-.62.674-.62h2.674c.695 0 .96.194 1.205.892 1.225 3.41 3.41 6.412 4.33 6.412.346 0 .388-.27.388-.969V3.868c0-1.682-1.001-1.821-1.001-2.442 0-.245.204-.426.53-.426h4.289c.572 0 .652.193.652.852v4.707c0 .538.116.736.368.736.312 0 .599-.179 1.164-.774 1.76-1.842 3.206-4.766 3.206-4.766.184-.368.408-.621 1.021-.621h2.675c.53 0 .755.27.654.756-.306 1.356-3.39 5.483-3.39 5.483-.285.426-.409.659 0 1.065.285.348 1.185 1.105 1.735 1.801 1.347 1.356 2.226 2.5 2.226 3.139 0 .487-.285.622-.592.622z" stroke="currentColor" fill="none" stroke-width="1.2"/></symbol><symbol id="zoom-in-map"><path d="M10 0v10M0 10h20M10 13.125V20" stroke="currentColor" display="var(--is-visible-only-desktop)" fill="none" stroke-width="1.2" stroke-miterlimit="10"/><path d="M10 2v8M2 10h16M10 12.5V18" stroke="currentColor" display="var(--is-visible--non-desktop)" fill="non" stroke-width="1.2" stroke-miterlimit="10"/></symbol><symbol id="zoom-in"><path d="M9 3v6M3 9h12m-6 1.5V15" stroke="currentColor" fill="none" stroke-width="1.2" stroke-miterlimit="10"/></symbol><symbol id="zoom-out-map"><path d="M0 1h20" display="var(--is-visible--only-desktop)" fill="none" stroke="currentColor" stroke-width="1.2" stroke-miterlimit="10"/><path d="M2 1h16" display="var(--is-visible--non-desktop)" fill="none" stroke="currentColor" stroke-width="1.2" stroke-miterlimit="10"/></symbol></svg>